<svg xmlns="http://www.w3.org/2000/svg" width="14.6" height="14.6" viewBox="0 0 14.6 14.6"><defs><style>.a{fill:#b22a2e;}</style></defs><g transform="translate(0)"><path class="a" d="M40.79,33.71a2.6,2.6,0,1,0,2.6,2.6A2.6,2.6,0,0,0,40.79,33.71Zm0,4.325a1.723,1.723,0,1,1,1.723-1.723A1.725,1.725,0,0,1,40.79,38.035Z" transform="translate(-33.49 -30.007)"/><path class="a" d="M24.05,16.82a7.3,7.3,0,1,0,7.3,7.3A7.309,7.309,0,0,0,24.05,16.82ZM20.977,29.758a3.122,3.122,0,0,1,6.142,0,6.4,6.4,0,0,1-6.142,0Zm6.927-.5a4,4,0,0,0-7.708,0,6.423,6.423,0,1,1,7.708,0Z" transform="translate(-16.75 -16.82)"/></g></svg>