<svg xmlns="http://www.w3.org/2000/svg" width="46.922" height="43.168" viewBox="0 0 46.922 43.168"><defs><style>.a{fill:#6467b1;}</style></defs><g transform="translate(-25.078 -621.905)"><g transform="translate(25.078 621.905)"><path class="a" d="M56.291,60.722H20.631A5.636,5.636,0,0,1,15,55.092V31.631A5.636,5.636,0,0,1,20.631,26H56.291a5.636,5.636,0,0,1,5.631,5.631V55.092A5.636,5.636,0,0,1,56.291,60.722ZM20.631,29.754a1.879,1.879,0,0,0-1.877,1.877V55.092a1.879,1.879,0,0,0,1.877,1.877H56.291a1.879,1.879,0,0,0,1.877-1.877V31.631a1.879,1.879,0,0,0-1.877-1.877Z" transform="translate(-15 -17.554)"/><path class="a" d="M47.892,29.2H31V23.378A6.385,6.385,0,0,1,37.378,17h4.137a6.385,6.385,0,0,1,6.378,6.378ZM34.754,25.446h9.384V23.378a2.627,2.627,0,0,0-2.624-2.624H37.378a2.627,2.627,0,0,0-2.624,2.624Z" transform="translate(-15.983 -17)"/></g></g></svg>