<svg xmlns="http://www.w3.org/2000/svg" width="45.5" height="45.5" viewBox="0 0 45.5 45.5"><defs><style>.a,.b{fill:none;stroke-linecap:round;stroke-linejoin:round;stroke-width:1.5px;}.a{stroke:#1b1d4d;}.b{stroke:#6467b1;}</style></defs><g transform="translate(-31.182 -858.187)"><circle class="a" cx="3.733" cy="3.733" r="3.733" transform="translate(49.442 890.032)"/><circle class="b" cx="6" cy="6" r="6" transform="translate(47.932 874.937)"/><path class="b" d="M37.8,29a3.3,3.3,0,0,0,.66,3.64l.12.12a4,4,0,1,1-5.66,5.66l-.12-.12a3.327,3.327,0,0,0-5.64,2.36V41a4,4,0,1,1-8,0v-.18A3.3,3.3,0,0,0,17,37.8a3.3,3.3,0,0,0-3.64.66l-.12.12a4,4,0,1,1-5.66-5.66l.12-.12a3.327,3.327,0,0,0-2.36-5.64H5a4,4,0,1,1,0-8h.18A3.3,3.3,0,0,0,8.2,17a3.3,3.3,0,0,0-.66-3.64l-.12-.12a4,4,0,1,1,5.66-5.66l.12.12a3.3,3.3,0,0,0,3.64.66H17a3.3,3.3,0,0,0,2-3.02V5a4,4,0,1,1,8,0v.18a3.327,3.327,0,0,0,5.64,2.36l.12-.12a4,4,0,1,1,5.66,5.66l-.12.12a3.3,3.3,0,0,0-.66,3.64V17a3.3,3.3,0,0,0,3.02,2H41a4,4,0,1,1,0,8h-.18A3.3,3.3,0,0,0,37.8,29Z" transform="translate(30.932 857.937)"/></g></svg>