<svg xmlns="http://www.w3.org/2000/svg" width="45.001" height="45.001" viewBox="0 0 45.001 45.001"><defs><style>.a{fill:#6467b1;stroke:#6467b1;}</style></defs><g transform="translate(-28.222 -244.66)"><path class="a" d="M22,44A22,22,0,1,1,44,22,22.028,22.028,0,0,1,22,44ZM22,1.913A20.087,20.087,0,1,0,42.088,22,20.109,20.109,0,0,0,22,1.913Z" transform="translate(28.722 245.16)"/><path class="a" d="M33.737,39.223a.955.955,0,0,1-.957-.957V18.307a.957.957,0,1,1,1.913,0v19.96A.955.955,0,0,1,33.737,39.223Z" transform="translate(16.845 238.874)"/><path class="a" d="M38.046,34.913H18.087a.957.957,0,1,1,0-1.913h19.96a.957.957,0,0,1,0,1.913Z" transform="translate(22.515 233.204)"/></g></svg>