<svg xmlns="http://www.w3.org/2000/svg" width="17.011" height="15.118" viewBox="0 0 17.011 15.118"><defs><style>.a{fill:#05f;}</style></defs><path class="a" d="M11.89,2.461l2.664,2.664a.289.289,0,0,1,0,.408L8.1,11.983l-2.741.3a.574.574,0,0,1-.635-.635l.3-2.741,6.45-6.45A.289.289,0,0,1,11.89,2.461Zm4.784-.676L15.234.344a1.155,1.155,0,0,0-1.63,0L12.558,1.389a.289.289,0,0,0,0,.408l2.664,2.664a.289.289,0,0,0,.408,0l1.045-1.045a1.155,1.155,0,0,0,0-1.63Zm-5.334,8.444v3.007H1.89V3.784H8.677a.363.363,0,0,0,.251-.1L10.109,2.5a.354.354,0,0,0-.251-.605H1.418A1.418,1.418,0,0,0,0,3.312v10.4a1.418,1.418,0,0,0,1.418,1.418h10.4a1.418,1.418,0,0,0,1.418-1.418V9.047a.355.355,0,0,0-.605-.251L11.444,9.978A.363.363,0,0,0,11.341,10.229Z" transform="translate(0 -0.007)"/></svg>