<svg xmlns="http://www.w3.org/2000/svg" width="18.711" height="19.151" viewBox="0 0 18.711 19.151"><defs><style>.a{fill:#676767;stroke:#676767;stroke-width:0.59px;}</style></defs><path class="a" d="M18.783,21.374H5.588a2.466,2.466,0,0,1-2.463-2.463V5.276A2.466,2.466,0,0,1,5.588,2.813H18.783a2.466,2.466,0,0,1,2.463,2.463V18.911A2.466,2.466,0,0,1,18.783,21.374ZM5.588,3.517A1.762,1.762,0,0,0,3.829,5.276V18.911A1.761,1.761,0,0,0,5.588,20.67H18.783a1.761,1.761,0,0,0,1.759-1.759V5.276a1.761,1.761,0,0,0-1.759-1.759Zm6.994,14.338H6.16a.352.352,0,1,1,0-.7h6.421a.352.352,0,1,1,0,.7Zm5.63-1.8H6.16a.352.352,0,0,1,0-.7H18.211a.352.352,0,1,1,0,.7Zm0-1.8H6.16a.352.352,0,1,1,0-.7H18.211a.352.352,0,1,1,0,.7Zm0-1.8H6.16a.352.352,0,0,1,0-.7H18.211a.352.352,0,1,1,0,.7Zm0-1.8H6.16a.352.352,0,1,1,0-.7H18.211a.352.352,0,1,1,0,.7Zm0-4.267H6.16a.352.352,0,0,1,0-.7H18.211a.352.352,0,1,1,0,.7Z" transform="translate(-2.83 -2.518)"/></svg>