<svg xmlns="http://www.w3.org/2000/svg" width="40.603" height="48.656" viewBox="0 0 40.603 48.656"><defs><style>.a{fill:#6467b1;}</style></defs><path class="a" d="M39.071,39.194,41.61,36.6a21.049,21.049,0,0,0,4.584-13.671V19.525a12.648,12.648,0,0,1,9-12.022,4.733,4.733,0,1,1,7.664,0,12.648,12.648,0,0,1,9,12.022v3.3a21.879,21.879,0,0,0,3.185,11.754A33.528,33.528,0,0,0,79,39.218a1.258,1.258,0,0,1-.914,2.1h-10.5a8.668,8.668,0,0,1-17.132,0h-10.5A1.258,1.258,0,0,1,39.071,39.194Zm36.158-.375A20.464,20.464,0,0,1,71.9,34.088h-4.99a1.248,1.248,0,1,1,0-2.5h3.918a25.848,25.848,0,0,1-1.463-8.768v-3.3a10.339,10.339,0,0,0-20.672,0v3.406a25.824,25.824,0,0,1-1.43,8.662h7.02a1.248,1.248,0,1,1,0,2.5H46.2a18.524,18.524,0,0,1-3.272,4.732h32.3Z" transform="translate(-38.724)"/></svg>