<svg xmlns="http://www.w3.org/2000/svg" width="33.687" height="33.687" viewBox="0 0 33.687 33.687"><defs><style>.a{fill:#6467b1;}</style></defs><path class="a" d="M17.844,1a16.844,16.844,0,0,0,0,33.687,1.531,1.531,0,0,0,0-3.062A13.781,13.781,0,1,1,31.625,17.844v4.375a2.844,2.844,0,0,1-5.687,0V11.281a1.531,1.531,0,1,0-3.062,0v.274a8.092,8.092,0,1,0,.274,12.351,5.891,5.891,0,0,0,11.538-1.687V17.844A16.864,16.864,0,0,0,17.844,1Zm0,21.875a5.032,5.032,0,1,1,5.032-5.032,5.032,5.032,0,0,1-5.032,5.032Z" transform="translate(-1 -1)"/></svg>