<svg xmlns="http://www.w3.org/2000/svg" width="17.93" height="22.413" viewBox="0 0 17.93 22.413"><defs><style>.a{fill:#676767;}</style></defs><path class="a" d="M16.56,16.965H28.888V13.883a4.075,4.075,0,0,0-3.922-4.2C22.8,9.681,21.876,8,24.965,8a5.755,5.755,0,0,1,5.6,5.883v3.082h2.8a.56.56,0,0,1,.56.56V29.853a.56.56,0,0,1-.56.56H16.56a.56.56,0,0,1-.56-.56V17.526a.56.56,0,0,1,.56-.56ZM24.435,24.1a.542.542,0,0,0-.031.152V25.37a.56.56,0,1,0,1.121,0V24.249a.542.542,0,0,0-.031-.152,1.109,1.109,0,0,0,.591-.969,1.121,1.121,0,0,0-2.241,0A1.109,1.109,0,0,0,24.435,24.1Z" transform="translate(-16 -8)"/></svg>