<svg xmlns="http://www.w3.org/2000/svg" width="39.528" height="34.138" viewBox="0 0 39.528 34.138"><defs><style>.a{fill:#6467b1;}</style></defs><path class="a" d="M37.341,43.138H12.187A7.187,7.187,0,0,1,5,35.951V16.187A7.187,7.187,0,0,1,12.187,9h1.8a1.8,1.8,0,0,1,1.8,1.8v2.7a.9.9,0,0,0,1.8,0V10.8a1.8,1.8,0,0,1,1.8-1.8h10.78a1.8,1.8,0,0,1,1.8,1.8v2.7a.9.9,0,0,0,1.8,0V10.8a1.8,1.8,0,0,1,1.8-1.8h1.8a7.187,7.187,0,0,1,7.187,7.187V35.951A7.187,7.187,0,0,1,37.341,43.138ZM12.187,12.593a3.593,3.593,0,0,0-3.593,3.593V35.951a3.593,3.593,0,0,0,3.593,3.593H37.341a3.593,3.593,0,0,0,3.593-3.593V16.187a3.593,3.593,0,0,0-3.593-3.593v.9a4.492,4.492,0,1,1-8.984,0v-.9H21.171v.9a4.492,4.492,0,0,1-8.984,0Z" transform="translate(-5 -9)"/></svg>