<svg xmlns="http://www.w3.org/2000/svg" width="20.031" height="18.119" viewBox="0 0 20.031 18.119"><defs><style>.a{fill:#676767;}</style></defs><path class="a" d="M46.331,31.975a4.2,4.2,0,0,0-5.929,0L31.6,40.825a2.521,2.521,0,0,0,3.566,3.566l5.456-5.5a.851.851,0,1,0-1.2-1.2l-5.5,5.456A.79.79,0,1,1,32.8,42.028l8.807-8.85a2.461,2.461,0,1,1,3.48,3.48l-8.807,8.85a4.131,4.131,0,1,1-5.843-5.843l7.9-7.9a.851.851,0,0,0-1.2-1.2l-7.9,7.862a5.863,5.863,0,0,0,8.291,8.291L46.331,37.9A4.2,4.2,0,0,0,46.331,31.975Z" transform="translate(-27.525 -30.3)"/></svg>